<svg width="120" height="18" viewBox="0 0 120 18" fill="none" xmlns="http://www.w3.org/2000/svg">
<g clip-path="url(#clip0_2_241)">
<path d="M24.2657 0.693848C23.3524 1.64613 23.0825 2.15333 22.4286 3.59212L16.3985 17.421L12.1328 7.73252L7.91904 17.421L1.83705 3.60247C1.21432 2.16368 0.934094 1.69789 0 0.693848H7.71147C7.13025 1.18034 6.82927 1.81175 6.82927 2.59843C6.82927 3.15738 6.92268 3.55072 7.22366 4.27529L9.52776 9.76131L11.2299 5.67267L10.275 3.45756C9.71458 2.18439 9.32019 1.38736 8.75973 0.693848H16.4712C15.7239 1.18034 15.3503 1.81175 15.3503 2.59843C15.3503 3.15738 15.4437 3.55072 15.7447 4.27529L18.1007 9.76131L20.4255 4.27529C20.7265 3.55072 20.8407 3.15738 20.8407 2.62948C20.8407 1.93596 20.3529 1.09753 19.7924 0.704199H24.2657V0.693848Z" fill="white"/>
<path d="M32.2783 13.0113C31.531 16.2408 29.7355 17.3069 27.1304 17.3069C24.1516 17.3069 21.3597 15.1436 21.3597 11.086C21.3597 7.18363 23.8299 4.41992 27.0681 4.41992C29.1854 4.41992 32.1641 5.50677 32.1641 10.113H25.1273C25.6151 12.5765 27.2238 13.8497 29.4552 13.8497C30.5969 13.8394 31.3961 13.6323 32.2783 13.0113ZM24.9923 8.49821V8.79839H28.0645C28.0645 6.47977 27.5559 5.7552 26.5699 5.7552C25.5735 5.7552 24.9923 6.75924 24.9923 8.49821Z" fill="white"/>
<path d="M46.3935 4.89602C44.463 3.06389 42.5533 2.1116 41.0795 2.1116V12.3591C41.0795 14.4293 41.6192 15.6818 43.0307 16.9549H34.2295C35.6514 15.6818 36.1807 14.4189 36.1807 12.3591V2.1116C34.7173 2.1116 32.7142 3.06389 30.8668 4.89602L31.8009 0C32.434 0.486497 33.5964 0.693516 34.8937 0.693516H42.3457C43.6535 0.693516 44.8159 0.486497 45.4386 0L46.3935 4.89602Z" fill="white"/>
<path d="M51.7487 16.955H44.3382C45.2515 15.8889 45.6459 15.185 45.6459 13.4978V9.73008C45.6459 8.40515 45.4591 7.78409 44.5769 6.96636L44.0684 6.50057L49.6625 4.40967V7.30794C50.2022 5.63108 51.0326 4.40967 52.4129 4.40967C53.5339 4.40967 54.25 5.19634 54.25 6.35565C54.25 7.58742 53.482 8.44655 52.4129 8.44655C52.1846 7.9083 51.6241 7.65988 51.1052 7.65988C50.6901 7.65988 50.2853 7.77374 50.0777 7.98076V13.3529C50.0673 15.1436 50.3683 15.6301 51.7487 16.955Z" fill="white"/>
<path d="M67.0474 14.8227C66.7671 16.2822 65.5528 17.3069 63.9026 17.3069C62.5014 17.3069 61.4324 16.4685 61.1107 15.5162C60.4153 16.7687 59.1075 17.3069 57.7064 17.3069C55.7759 17.3069 54.4682 16.0338 54.4682 14.2845C54.4682 12.2453 55.9316 10.8272 59.3151 10.0095L60.8719 9.63682V7.54592C60.8719 6.2417 60.4257 5.71379 59.6369 5.71379C58.8896 5.71379 58.4018 6.20029 58.4018 6.87311C58.4018 7.45276 58.682 7.8254 59.1698 8.29119C59.1698 9.03646 58.0074 9.80244 56.7931 9.80244C55.6099 9.80244 54.7692 8.89155 54.7692 7.78399C54.7692 5.80695 56.9591 4.41992 60.1766 4.41992C63.5289 4.41992 65.3037 5.83801 65.3037 8.99506V13.9843C65.3037 14.6157 65.6773 15.0297 66.2586 15.0297C66.6011 15.0297 66.8605 14.9573 67.0474 14.8227ZM60.8719 14.4708V10.7341L60.571 10.8272C59.5746 11.1274 58.8896 11.7795 58.8896 13.0837C58.8896 14.2016 59.3359 14.8745 60.052 14.8745C60.436 14.8641 60.737 14.7503 60.8719 14.4708Z" fill="white"/>
<path d="M73.3574 16.955H67.0886C67.7424 16.3236 68.1576 15.4024 68.1576 13.4978V9.73008C68.1576 8.4569 67.9915 7.80479 67.2235 7.08022L66.6838 6.59373L72.4544 4.40967V6.22109C73.129 5.10318 74.5509 4.40967 75.9728 4.40967C78.2043 4.40967 79.4394 5.62073 79.4394 7.77374V14.2845C79.4394 15.6094 79.7923 16.4168 80.3527 16.955H74.25C74.8519 16.3754 75.018 15.5887 75.018 14.9573V8.31199C75.018 7.339 74.6962 6.8525 73.7829 6.8525C73.2743 6.8525 72.8488 7.03882 72.5686 7.31829V14.9573C72.5893 15.5887 72.745 16.3547 73.3574 16.955Z" fill="white"/>
<path d="M81.5047 16.282V12.3072C83.186 14.4913 84.9297 15.7024 86.5592 15.7024C87.3479 15.7024 87.7216 15.2883 87.7216 14.7087C87.7216 14.1497 87.4206 13.8288 86.8809 13.6218L84.1824 12.6281C82.1066 11.8621 81.1829 10.589 81.1829 8.68443C81.1829 6.2209 83.2068 4.43018 86.0921 4.43018C87.6489 4.43018 89.3718 4.87527 90.2333 5.49633V8.89145C89.1642 7.00757 87.4102 5.96212 85.7185 5.96212C84.857 5.96212 84.4107 6.2416 84.4107 6.77985C84.4107 7.3181 84.7325 7.52512 85.459 7.8253L88.6557 9.10882C90.2644 9.76094 90.9805 11.1272 90.9805 12.7834C90.9805 15.5057 88.9982 17.3171 86.0195 17.3171C84.5353 17.3068 82.9992 16.9755 81.5047 16.282Z" fill="white"/>
<path d="M91.4478 5.92077L92.7971 3.85057C94.52 1.25247 95.9004 0 98.2252 0C100.042 0 101.204 0.786675 101.204 1.97704C101.204 3.00179 100.363 3.74706 98.5989 3.74706C98.5989 2.30827 97.7789 1.77002 96.9694 1.77002C96.1495 1.77002 95.5267 2.34967 95.5267 3.30197C95.5267 3.95408 95.8796 4.60619 96.9486 4.76146H99.533L98.5989 5.92077H97.0109V12.8145C97.0109 14.1188 97.2185 15.2781 98.5677 16.4581L99.1282 16.9446H91.095C92.0291 16.013 92.5895 14.8744 92.5895 13.2079V5.92077H91.4478Z" fill="white"/>
<path d="M109.704 13.0113C108.957 16.2408 107.161 17.3069 104.556 17.3069C101.577 17.3069 98.7856 15.1436 98.7856 11.086C98.7856 7.18363 101.256 4.41992 104.494 4.41992C106.611 4.41992 109.59 5.50677 109.59 10.113H102.553C103.041 12.5765 104.65 13.8497 106.881 13.8497C108.033 13.8394 108.822 13.6323 109.704 13.0113ZM102.418 8.49821V8.79839H105.49C105.49 6.47977 104.982 5.7552 103.996 5.7552C102.999 5.7552 102.418 6.75924 102.418 8.49821Z" fill="white"/>
<path d="M117.509 16.955H110.098C111.012 15.8889 111.406 15.185 111.406 13.4978V9.73008C111.406 8.40515 111.219 7.78409 110.337 6.96636L109.829 6.50057L115.423 4.40967V7.30794C115.963 5.63108 116.793 4.40967 118.173 4.40967C119.294 4.40967 120.01 5.19634 120.01 6.35565C120.01 7.58742 119.242 8.44655 118.173 8.44655C117.945 7.9083 117.384 7.65988 116.865 7.65988C116.45 7.65988 116.046 7.77374 115.838 7.98076V13.3529C115.828 15.1436 116.129 15.6301 117.509 16.955Z" fill="white"/>
</g>
<defs>
<clipPath id="clip0_2_241">
<rect width="120" height="18" fill="white"/>
</clipPath>
</defs>
</svg>
