<svg width="122" height="56" viewBox="0 0 122 56" fill="none" xmlns="http://www.w3.org/2000/svg">
<path d="M30.0196 7.51974C30.0196 11.8182 26.5429 14.9562 22.0704 14.9562C20.4218 14.9562 18.9527 14.5967 18.0713 13.9592C20.7482 12.8152 22.1357 10.4453 22.1357 7.47071C22.1357 3.98945 20.4218 2.01184 17.9243 2.01184H17.7448V19.4999C17.7448 22.3927 18.8384 24.2723 20.8135 25.6615H8C9.46907 24.1906 10.0567 22.3927 10.0567 19.4999V6.16319C10.0567 3.22129 9.46907 1.4398 8 0.00153446H19.9811C26.4286 0.00153446 30.0196 2.82903 30.0196 7.51974Z" fill="black"/>
<path d="M50.163 22.2945C49.7223 24.599 47.8124 26.217 45.2171 26.217C43.0135 26.217 41.3323 24.8932 40.8262 23.3895C39.7326 25.3671 37.6759 26.217 35.4723 26.217C32.4362 26.217 30.3796 24.2067 30.3796 21.4446C30.3796 18.2249 32.6811 15.9858 38.0024 14.6946L40.4508 14.1062V10.821C40.4508 8.76174 39.749 7.92817 38.5084 7.92817C37.3332 7.92817 36.5659 8.69637 36.5659 9.75873C36.5659 10.6739 37.0067 11.2624 37.7739 11.9978C37.7739 13.1745 35.9457 14.384 34.0359 14.384C32.1751 14.384 30.8529 12.9457 30.8529 11.197C30.8529 8.07526 34.2971 5.88518 39.3572 5.88518C44.6295 5.88518 47.4207 8.12429 47.4207 13.1092V20.987C47.4207 21.984 48.0083 22.6377 48.9224 22.6377C49.4611 22.6213 49.8692 22.5233 50.163 22.2945ZM40.4508 21.7551V15.8387L39.9775 15.9858C38.4104 16.4597 37.3332 17.4894 37.3332 19.5487C37.3332 21.3138 38.035 22.3762 39.1613 22.3762C39.749 22.3762 40.2386 22.1964 40.4508 21.7551Z" fill="black"/>
<path d="M70.4844 15.1843C70.4844 22.5227 66.975 26.2165 61.4741 26.2165C60.1192 26.2165 59.1725 25.8569 58.5033 25.4483V27.3115C58.5033 30.139 58.9767 30.9072 61.1476 32.9992H49.493C50.9294 31.3157 51.5497 30.2044 51.5497 27.5403V14.2364C51.5497 12.2588 51.2885 11.2291 50.0807 10.085L49.2319 9.31684L58.3074 5.8683V8.76119C59.4011 6.99603 61.2782 5.8683 63.5471 5.8683C68.5093 5.8683 70.4844 10.4446 70.4844 15.1843ZM62.9758 16.214C62.9758 11.9155 62.2086 9.72549 60.1846 9.72549C59.597 9.72549 59.0093 9.98698 58.5033 10.4282V23.5524C58.8297 23.8466 59.2052 23.961 59.597 23.961C61.2455 23.9446 62.9758 22.1959 62.9758 16.214Z" fill="black"/>
<path d="M89.3038 19.4338C88.1283 24.5331 85.3047 26.2165 81.2077 26.2165C76.523 26.2165 72.1321 22.8006 72.1321 16.3938C72.1321 10.2321 76.017 5.8683 81.1097 5.8683C84.4396 5.8683 89.1242 7.58441 89.1242 14.8575H78.0573C78.8246 18.7473 81.3546 20.7576 84.864 20.7576C86.676 20.7576 87.9166 20.4308 89.3038 19.4338ZM77.8452 12.3242V12.7981H82.6768C82.6768 9.13707 81.877 7.99299 80.3263 7.99299C78.7593 7.99299 77.8452 9.57841 77.8452 12.3242Z" fill="black"/>
<path d="M101.759 25.6771H90.1037C91.5403 23.9937 92.1606 22.8824 92.1606 20.2182V14.269C92.1606 12.1771 91.8665 11.1964 90.4793 9.90526L89.6794 9.16976L98.4779 5.8683V10.4446C99.3263 7.79689 100.632 5.8683 102.803 5.8683C104.566 5.8683 105.692 7.11044 105.692 8.94096C105.692 10.8859 104.485 12.2424 102.803 12.2424C102.444 11.3925 101.563 11.0003 100.746 11.0003C100.094 11.0003 99.4573 11.1801 99.1303 11.5069V19.9731C99.1146 22.8169 99.6039 23.5851 101.759 25.6771Z" fill="black"/>
<path d="M110.137 2.39788H111.828C112.237 2.39788 112.566 2.44188 112.816 2.52987C113.064 2.6032 113.255 2.70587 113.387 2.83786C113.532 2.95519 113.628 3.10185 113.672 3.27784C113.73 3.43917 113.76 3.60782 113.76 3.78381C113.76 4.10646 113.701 4.37045 113.584 4.57577C113.481 4.76643 113.291 4.92043 113.013 5.03775L113.979 6.92965H112.838L112.003 5.25774H111.169V6.92965H110.137V2.39788ZM111.959 4.37778C112.34 4.37778 112.566 4.31912 112.64 4.2018C112.713 4.08447 112.75 3.94514 112.75 3.78381C112.75 3.65182 112.698 3.5345 112.596 3.43183C112.493 3.3145 112.237 3.25584 111.828 3.25584H111.169V4.37778H111.959ZM111.893 9.50353C111.22 9.50353 110.598 9.39353 110.027 9.17353C109.471 8.95353 108.988 8.63822 108.578 8.22761C108.183 7.81695 107.875 7.31831 107.656 6.73167C107.436 6.14503 107.326 5.48506 107.326 4.75176C107.326 4.01847 107.443 3.3585 107.678 2.77187C107.912 2.18523 108.234 1.68658 108.644 1.27594C109.068 0.865291 109.551 0.549973 110.093 0.329984C110.649 0.109994 111.249 0 111.893 0C112.581 0 113.203 0.109994 113.76 0.329984C114.331 0.549973 114.814 0.865291 115.209 1.27594C115.604 1.68658 115.912 2.18523 116.131 2.77187C116.35 3.3585 116.46 4.01847 116.46 4.75176C116.46 5.48506 116.343 6.14503 116.109 6.73167C115.875 7.31831 115.545 7.81695 115.121 8.22761C114.711 8.63822 114.228 8.95353 113.672 9.17353C113.115 9.39353 112.522 9.50353 111.893 9.50353ZM111.871 8.46961C112.882 8.46961 113.701 8.14691 114.331 7.50163C114.974 6.85633 115.297 5.93971 115.297 4.75176C115.297 3.56383 114.974 2.6472 114.331 2.0019C113.701 1.3566 112.882 1.03394 111.871 1.03394C110.861 1.03394 110.042 1.3566 109.412 2.0019C108.798 2.6472 108.49 3.56383 108.49 4.75176C108.49 5.93971 108.798 6.85633 109.412 7.50163C110.042 8.14691 110.861 8.46961 111.871 8.46961Z" fill="black"/>
<path d="M1 38.5915H2.7109V43.7491C3.13026 43.212 3.61539 42.7966 4.1663 42.5028C4.7172 42.2091 5.36641 42.0621 6.11393 42.0618C6.83486 42.0618 7.46746 42.1899 8.01171 42.4461C8.54512 42.6938 9.01027 43.0619 9.36856 43.5199C9.72919 43.98 9.99799 44.5264 10.175 45.1591C10.352 45.7917 10.4405 46.4916 10.4405 47.2587C10.4405 48.0768 10.3356 48.8152 10.1258 49.4741C9.91607 50.133 9.61465 50.6922 9.22156 51.1517C8.83408 51.6066 8.34581 51.9698 7.79353 52.214C7.23706 52.4633 6.61104 52.5879 5.91546 52.5879C5.32288 52.5874 4.7369 52.4666 4.19481 52.2332C3.63804 51.9969 3.1373 51.591 2.69259 51.0156V52.2816H1V38.5915ZM2.69259 47.603C2.69259 48.2423 2.76786 48.7887 2.91842 49.2422C3.06897 49.6957 3.27556 50.0696 3.53818 50.3639C3.79155 50.6526 4.11593 50.8739 4.48093 51.007C4.84774 51.1413 5.24754 51.2085 5.68035 51.2085C6.08061 51.2121 6.47784 51.1405 6.85032 50.9975C7.21079 50.8572 7.52225 50.6303 7.78472 50.3169C8.04719 50.0034 8.25362 49.5975 8.40402 49.0993C8.55458 48.6009 8.63001 47.9938 8.63032 47.2779C8.63032 46.5491 8.54832 45.9388 8.38431 45.4468C8.22031 44.9549 8.00731 44.5619 7.7453 44.2677C7.48253 43.9738 7.1842 43.7628 6.85032 43.6347C6.52169 43.508 6.17147 43.443 5.81807 43.443C5.39452 43.4391 4.97408 43.5139 4.57924 43.6634C4.20335 43.8075 3.86439 44.0302 3.58618 44.3156C3.30408 44.602 3.08443 44.9659 2.92723 45.4075C2.77003 45.8491 2.69181 46.3572 2.69259 46.9318V47.603Z" fill="#161616"/>
<path d="M20.8705 42.3685L15.01 56H13.2395L15.0684 52.0311L10.8601 42.3685H12.8462L15.914 50.0772L18.9817 42.3685H20.8705Z" fill="#161616"/>
<path d="M25.4316 38.5915H27.4769L30.4072 49.8462L33.4552 38.6489H35.4028L38.4314 49.8462L41.341 38.5915H43.2683L39.3744 52.2811H37.4669L34.3402 40.8343L31.2722 52.2811H29.4238L25.4316 38.5915Z" fill="#161616"/>
<path d="M52.4931 49.5012C52.3231 50.4598 51.8871 51.214 51.1854 51.7636C50.4836 52.3132 49.4774 52.5881 48.1668 52.5881C46.6195 52.5881 45.433 52.1311 44.6072 51.2172C43.7815 50.3033 43.3686 49.0283 43.3684 47.3923C43.3684 46.536 43.4864 45.7753 43.7225 45.1104C43.9585 44.4455 44.2895 43.8895 44.7155 43.4425C45.1405 42.9961 45.6607 42.646 46.2395 42.4169C46.8296 42.1804 47.472 42.0622 48.1668 42.0622C48.9534 42.0622 49.6286 42.1837 50.1923 42.4266C50.7561 42.6696 51.2182 43.005 51.5786 43.433C51.9391 43.8613 52.2079 44.3695 52.385 44.9574C52.5622 45.5453 52.6507 46.1905 52.6505 46.8929V47.7363H45.1C45.1 48.2347 45.1687 48.6981 45.3063 49.1264C45.4439 49.5547 45.6406 49.9254 45.8964 50.2386C46.1524 50.5523 46.4786 50.8047 46.85 50.9767C47.2303 51.1559 47.6695 51.2454 48.1677 51.2453C49.0199 51.2453 49.6426 51.0886 50.0358 50.7753C50.429 50.462 50.6979 50.037 50.8422 49.5003L52.4931 49.5012ZM50.9396 46.491C50.9396 46.0182 50.8872 45.59 50.7824 45.2065C50.6776 44.8229 50.5137 44.4937 50.2906 44.2188C50.0676 43.9442 49.7791 43.7302 49.4253 43.5766C49.0715 43.423 48.6454 43.3463 48.1471 43.3465C47.2427 43.3465 46.538 43.6149 46.0332 44.1519C45.5284 44.6889 45.2301 45.4686 45.1384 46.491H50.9396Z" fill="#161616"/>
<path d="M55.805 40.1636H51.1641V38.5915H62.2748V40.1636H57.6339V52.2804H55.805V40.1636Z" fill="#161616"/>
<path d="M61.023 42.3686H62.7142V43.9024C63.0941 43.3531 63.5399 42.9311 64.0513 42.6364C64.5628 42.3418 65.1069 42.1948 65.6836 42.1954C66.0376 42.1954 66.339 42.221 66.5879 42.2723L66.3713 43.8253C66.2404 43.8 66.109 43.7774 65.9772 43.7575C65.8339 43.7375 65.6893 43.7279 65.5445 43.7288C65.2164 43.7311 64.8909 43.7862 64.5811 43.8918C64.2531 44.0006 63.945 44.1827 63.6567 44.4382C63.3752 44.6725 63.1445 44.9593 62.9783 45.2818C62.8144 45.6015 62.7325 45.9721 62.7325 46.3938V52.2811H61.0216L61.023 42.3686Z" fill="#161616"/>
<path d="M76.6197 42.3687V52.2812H74.9482V50.8625C74.5285 51.4123 74.0434 51.8373 73.4928 52.1375C72.9422 52.4377 72.293 52.5879 71.5452 52.588C70.5488 52.588 69.7327 52.3579 69.0969 51.8978C68.4612 51.4377 67.9892 50.8114 67.681 50.0188C67.3729 49.2265 67.2189 48.3449 67.2189 47.3739C67.2189 45.7248 67.6221 44.4274 68.4285 43.4816C69.2349 42.5357 70.3393 42.0628 71.7418 42.0628C72.2792 42.0628 72.8299 42.1746 73.3938 42.3983C73.9577 42.6219 74.4755 43.0278 74.9473 43.6158V42.3687H76.6197ZM74.9677 47.0285C74.9677 46.236 74.8792 45.6193 74.7022 45.1782C74.5252 44.737 74.2337 44.363 73.8276 44.056C73.5392 43.8259 73.2475 43.666 72.9526 43.5765C72.6367 43.4842 72.3084 43.439 71.9787 43.4425C71.4278 43.4425 70.9263 43.5706 70.4742 43.8268C70.0221 44.083 69.6648 44.4946 69.4025 45.0617C69.1398 45.6305 69.0084 46.3878 69.0084 47.3336C69.0084 48.3053 69.1459 49.0722 69.4211 49.6345C69.6962 50.1968 70.0503 50.5962 70.4832 50.8326C70.9161 51.0692 71.3683 51.1875 71.8401 51.1873C72.22 51.1873 72.5609 51.1458 72.8626 51.0628C73.1643 50.9797 73.4657 50.8231 73.7669 50.593C74.1709 50.3017 74.484 49.9067 74.6711 49.4521C74.8677 48.9858 74.966 48.401 74.966 47.6978L74.9677 47.0285Z" fill="#161616"/>
<path d="M78.8785 42.3687H80.57V43.8833C81.0675 43.2315 81.6181 42.7653 82.2217 42.4847C82.8167 42.2053 83.4689 42.0611 84.1293 42.0628C85.2828 42.0628 86.1383 42.3696 86.6955 42.9831C87.2527 43.5967 87.5314 44.4978 87.5314 45.6866V52.2812H85.8205V46.0112C85.8205 45.091 85.65 44.4423 85.3092 44.0651C84.9684 43.6878 84.444 43.4994 83.736 43.4999C83.3507 43.5008 82.9683 43.5656 82.6052 43.6916C82.2263 43.8227 81.8809 44.032 81.5925 44.3051C81.2646 44.5863 81.0155 44.8835 80.8452 45.1967C80.6748 45.5099 80.5898 45.9157 80.5901 46.4143V52.2812H78.879L78.8785 42.3687Z" fill="#161616"/>
<path d="M90.8101 49.386C90.9279 50.0763 91.2261 50.5585 91.7046 50.8328C92.1832 51.1071 92.8355 51.2445 93.6615 51.2452C94.5271 51.2452 95.14 51.1013 95.5002 50.8136C95.8603 50.5259 96.0403 50.1458 96.04 49.6733C96.0406 49.489 96.0172 49.3053 95.9704 49.1267C95.9239 48.9537 95.8324 48.7952 95.7047 48.6667C95.5735 48.5324 95.39 48.4141 95.1542 48.3118C94.9185 48.2094 94.6104 48.1266 94.2298 48.0631L92.9314 47.8714C92.3545 47.782 91.8498 47.667 91.4173 47.5262C90.9848 47.3854 90.6177 47.2033 90.316 46.9798C90.023 46.7651 89.7906 46.4814 89.6406 46.1554C89.4899 45.8294 89.4145 45.4363 89.4145 44.9762C89.4145 44.5161 89.5161 44.1071 89.7192 43.7492C89.9264 43.3868 90.2157 43.0753 90.565 42.8384C90.9253 42.5891 91.3513 42.3973 91.843 42.263C92.3347 42.1288 92.869 42.0617 93.4459 42.0619C94.18 42.0619 94.7929 42.1322 95.2846 42.2728C95.7763 42.4134 96.1794 42.6051 96.4939 42.8479C96.799 43.0795 97.0476 43.3742 97.2218 43.7107C97.3935 44.0466 97.5258 44.4004 97.6159 44.7653L96.0625 45.014C95.9809 44.7683 95.8755 44.5307 95.7478 44.3044C95.6316 44.1025 95.4699 43.9291 95.2748 43.7971C95.0782 43.6628 94.8386 43.5606 94.556 43.4903C94.2735 43.4201 93.9228 43.3849 93.5039 43.3848C93.0321 43.3848 92.6388 43.4264 92.3239 43.5096C92.009 43.5927 91.7567 43.7045 91.5669 43.8448C91.3765 43.9859 91.2421 44.1425 91.1637 44.3148C91.0852 44.4867 91.0449 44.673 91.0457 44.8612C91.0428 45.0462 91.0694 45.2305 91.1245 45.4076C91.1801 45.5728 91.2824 45.7193 91.4197 45.8303C91.5637 45.9519 91.7603 46.0574 92.0095 46.1468C92.2587 46.2362 92.5799 46.3128 92.9731 46.3767L94.4482 46.6068C95.6409 46.7975 96.4961 47.1295 97.0138 47.6031C97.5314 48.0766 97.7904 48.7668 97.7905 49.6738C97.7905 50.0958 97.7055 50.4824 97.5355 50.8337C97.3654 51.185 97.1098 51.4915 96.7687 51.7531C96.4274 52.015 96.0013 52.2196 95.4904 52.3666C94.9796 52.5137 94.383 52.5872 93.7007 52.5871C93.0844 52.5871 92.5109 52.5296 91.9801 52.4146C91.4493 52.2996 90.9806 52.1174 90.5741 51.8682C90.1694 51.6212 89.8321 51.2824 89.5907 50.8807C89.3416 50.4719 89.1973 49.9733 89.1581 49.3851L90.8101 49.386Z" fill="#161616"/>
<path d="M100.343 41.5249C100.343 40.8092 100.481 40.2244 100.756 39.7705C101.031 39.3165 101.395 38.9811 101.847 38.764C102.3 38.5467 102.808 38.4381 103.372 38.4381C103.661 38.4374 103.95 38.4534 104.237 38.486C104.53 38.5218 104.82 38.5828 105.102 38.6682L104.827 39.9719C104.632 39.911 104.431 39.8693 104.227 39.8473C104.041 39.8283 103.855 39.8187 103.668 39.8184C103.209 39.8184 102.815 39.9367 102.488 40.1733C102.16 40.4099 101.996 40.8413 101.995 41.4673V42.3684H104.572V43.6913H101.995V52.2816H100.284V43.6913H98.6912V42.4253H99.5762C99.917 42.4253 100.13 42.3678 100.215 42.2526C100.301 42.1375 100.343 41.8949 100.343 41.5249Z" fill="#161616"/>
<path d="M114.408 49.5012C114.238 50.4598 113.802 51.214 113.1 51.7636C112.398 52.3132 111.392 52.5881 110.082 52.5881C108.535 52.5881 107.348 52.1311 106.522 51.2172C105.696 50.3033 105.283 49.0283 105.283 47.3923C105.283 46.536 105.401 45.7753 105.637 45.1104C105.873 44.4455 106.204 43.8895 106.631 43.4425C107.055 42.996 107.576 42.6459 108.155 42.4169C108.744 42.1804 109.387 42.0622 110.082 42.0622C110.868 42.0622 111.543 42.1837 112.107 42.4266C112.671 42.6696 113.133 43.005 113.494 43.433C113.854 43.8613 114.123 44.3695 114.3 44.9574C114.477 45.5453 114.566 46.1905 114.566 46.8929V47.7363H107.014C107.014 48.2347 107.083 48.6981 107.22 49.1264C107.358 49.5547 107.555 49.9254 107.81 50.2386C108.066 50.5523 108.393 50.8048 108.764 50.9767C109.144 51.1559 109.583 51.2454 110.082 51.2453C110.934 51.2453 111.556 51.0886 111.95 50.7753C112.343 50.462 112.612 50.037 112.756 49.5003L114.408 49.5012ZM112.855 46.491C112.855 46.0182 112.802 45.59 112.697 45.2065C112.593 44.8229 112.429 44.4937 112.206 44.2188C111.983 43.9442 111.694 43.7302 111.341 43.5766C110.987 43.423 110.561 43.3463 110.062 43.3465C109.158 43.3465 108.453 43.6149 107.948 44.1519C107.444 44.6889 107.145 45.4686 107.053 46.491H112.855Z" fill="#161616"/>
<path d="M116.435 42.3686H118.126V43.9024C118.507 43.3531 118.952 42.9311 119.464 42.6364C119.975 42.3418 120.519 42.1948 121.096 42.1954C121.45 42.1954 121.751 42.221 122 42.2723L121.784 43.8253C121.653 43.8 121.521 43.7774 121.39 43.7575C121.246 43.7375 121.102 43.7279 120.957 43.7288C120.629 43.7311 120.303 43.7862 119.993 43.8918C119.665 44.0006 119.357 44.1827 119.069 44.4382C118.788 44.6729 118.557 44.9601 118.391 45.2829C118.227 45.6026 118.145 45.9733 118.145 46.3949V52.2811H116.434L116.435 42.3686Z" fill="#161616"/>
</svg>
